<?xml version="1.0" encoding="UTF-8"?>
<svg viewBox="0 0 1440 900" width="1440" height="900" xmlns="http://www.w3.org/2000/svg" role="img" aria-labelledby="da-widget-title da-widget-desc">
  <title id="da-widget-title">The widget on shared rails</title>
  <desc id="da-widget-desc">A compliance-check widget embedded in a risk portal: its own regulatory filter layer on top, then five shared rails it reuses from the platform, document selection, search, comparison, citations and the response template, and a finding with numbered citations and a routed action.</desc>
  <defs>
    <filter id="da-widget-shadow" x="-10%" y="-10%" width="120%" height="130%"><feDropShadow dx="0" dy="18" stdDeviation="18" flood-color="#000" flood-opacity="0.45"/></filter>
    <pattern id="da-widget-grid" width="48" height="48" patternUnits="userSpaceOnUse"><path d="M48 0H0V48" fill="none" stroke="rgba(237,221,212,0.06)" stroke-width="1"/></pattern>
    <marker id="da-widget-arrow" markerWidth="10" markerHeight="8" refX="9" refY="4" orient="auto"><path d="M0 0L10 4L0 8Z" fill="#6b7f99"/></marker>
    <marker id="da-widget-arrow-m" markerWidth="10" markerHeight="8" refX="9" refY="4" orient="auto"><path d="M0 0L10 4L0 8Z" fill="#6d3fc4"/></marker>
    <marker id="da-widget-arrow-r" markerWidth="10" markerHeight="8" refX="9" refY="4" orient="auto"><path d="M0 0L10 4L0 8Z" fill="#dbc9c9"/></marker>
  </defs>
  <rect width="1440" height="900" fill="#1d2d2b"/>
  
<rect x="64" y="56" width="1312" height="788" rx="12" fill="#f3f5f8" stroke="#d5dbe3" stroke-width="1" filter="url(#da-widget-shadow)"/><rect x="64" y="56" width="1312" height="52" rx="0" fill="#e9edf2"/><path d="M64 108H1376" stroke="#d5dbe3"/><path d="M88 82l8-8 8 8-8 8z" fill="#6d3fc4"/><text x="112" y="87" font-family="'Archivo', 'Inter', system-ui, sans-serif" font-size="14" font-weight="700" fill="#1b2433" text-anchor="start" letter-spacing="0.3">Risk and compliance portal</text><text x="384.60800000000006" y="87" font-family="'Inter', system-ui, sans-serif" font-size="13" font-weight="400" fill="#5c6675" text-anchor="start">/  Regulatory risk</text><text x="533.6480000000001" y="87" font-family="'Inter', system-ui, sans-serif" font-size="13" font-weight="400" fill="#5c6675" text-anchor="start">/  Regional accounts</text><circle cx="1346" cy="82" r="12" fill="#dbe2ea"/><circle cx="1346" cy="78" r="4.5" fill="#46596f"/><path d="M1337 90a9 6 0 0 1 18 0z" fill="#46596f"/><rect x="64" y="108" width="72" height="736" rx="0" fill="#e9edf2"/><rect x="88" y="140" width="24" height="24" rx="6" fill="#d5dbe3"/><rect x="88" y="188" width="24" height="24" rx="6" fill="#d5dbe3"/><rect x="88" y="236" width="24" height="24" rx="6" fill="#6d3fc4"/><rect x="88" y="284" width="24" height="24" rx="6" fill="#d5dbe3"/><rect x="88" y="332" width="24" height="24" rx="6" fill="#d5dbe3"/><rect x="88" y="380" width="24" height="24" rx="6" fill="#d5dbe3"/><text x="168" y="156" font-family="'Archivo', 'Inter', system-ui, sans-serif" font-size="20" font-weight="700" fill="#5c6675" text-anchor="start">Regulatory risk · shared regional accounts</text><rect x="168" y="174" width="520" height="8" rx="4" fill="#dfe4ea"/><rect x="168" y="190" width="312" height="8" rx="4" fill="#dfe4ea"/><rect x="168" y="228" width="1168" height="576" rx="10" fill="#ffffff" stroke="#6d3fc4" stroke-width="2"/><rect x="168" y="228" width="1168" height="44" rx="10" fill="#6d3fc4"/><rect x="168" y="258" width="1168" height="14" rx="0" fill="#6d3fc4"/><text x="188" y="256" font-family="'Archivo', 'Inter', system-ui, sans-serif" font-size="14" font-weight="700" fill="#ffffff" text-anchor="start">Compliance check</text><text x="1316" y="256" font-family="'IBM Plex Mono', ui-monospace, monospace" font-size="11" font-weight="600" fill="#e8e0f8" text-anchor="end" letter-spacing="1.2">WIDGET · RIDES THE SHARED RAILS</text><rect x="188" y="292" width="1128" height="84" rx="8" fill="#f3eefb" stroke="#a98ee0" stroke-width="1"/><text x="204" y="316" font-family="'IBM Plex Mono', ui-monospace, monospace" font-size="12" font-weight="500" fill="#53309a" text-anchor="start" letter-spacing="1.2">ITS OWN LAYER · REGULATORY FILTERS</text><text x="204" y="340" font-family="'Inter', system-ui, sans-serif" font-size="11" font-weight="600" fill="#5c6675" text-anchor="start">Regulation</text><rect x="204" y="346" width="200" height="24" rx="5" fill="#ffffff" stroke="#1b2433" stroke-width="1.2"/><text x="218" y="363" font-family="'Inter', system-ui, sans-serif" font-size="14" font-weight="500" fill="#1b2433" text-anchor="start">Regional data rules</text><text x="424" y="340" font-family="'Inter', system-ui, sans-serif" font-size="11" font-weight="600" fill="#5c6675" text-anchor="start">Region</text><rect x="424" y="346" width="200" height="24" rx="5" fill="#ffffff" stroke="#1b2433" stroke-width="1.2"/><text x="438" y="363" font-family="'Inter', system-ui, sans-serif" font-size="14" font-weight="500" fill="#1b2433" text-anchor="start">EU · 4 markets</text><text x="644" y="340" font-family="'Inter', system-ui, sans-serif" font-size="11" font-weight="600" fill="#5c6675" text-anchor="start">Effective</text><rect x="644" y="346" width="200" height="24" rx="5" fill="#ffffff" stroke="#1b2433" stroke-width="1.2"/><text x="658" y="363" font-family="'Inter', system-ui, sans-serif" font-size="14" font-weight="500" fill="#1b2433" text-anchor="start">This year</text><text x="864" y="340" font-family="'Inter', system-ui, sans-serif" font-size="11" font-weight="600" fill="#5c6675" text-anchor="start">Risk tier</text><rect x="864" y="346" width="200" height="24" rx="5" fill="#ffffff" stroke="#1b2433" stroke-width="1.2"/><text x="878" y="363" font-family="'Inter', system-ui, sans-serif" font-size="14" font-weight="500" fill="#1b2433" text-anchor="start">High</text><text x="188" y="410" font-family="'IBM Plex Mono', ui-monospace, monospace" font-size="12" font-weight="500" fill="#5c6675" text-anchor="start" letter-spacing="1.2">SHARED RAILS · REUSED, NOT REBUILT</text><rect x="188" y="424" width="216" height="70" rx="8" fill="#f3f5f8" stroke="#d5dbe3" stroke-width="1"/><text x="202" y="450" font-family="'Inter', system-ui, sans-serif" font-size="13" font-weight="700" fill="#1b2433" text-anchor="start">Document selection</text><text x="202" y="470" font-family="'Inter', system-ui, sans-serif" font-size="11" font-weight="400" fill="#5c6675" text-anchor="start">Chips, 2 to 10, editable until su…</text><circle cx="388" cy="440" r="6" fill="#15803d"/><rect x="416" y="424" width="216" height="70" rx="8" fill="#f3f5f8" stroke="#d5dbe3" stroke-width="1"/><text x="430" y="450" font-family="'Inter', system-ui, sans-serif" font-size="13" font-weight="700" fill="#1b2433" text-anchor="start">Search</text><text x="430" y="470" font-family="'Inter', system-ui, sans-serif" font-size="11" font-weight="400" fill="#5c6675" text-anchor="start">Same index, same ranking</text><circle cx="616" cy="440" r="6" fill="#15803d"/><rect x="644" y="424" width="216" height="70" rx="8" fill="#f3f5f8" stroke="#d5dbe3" stroke-width="1"/><text x="658" y="450" font-family="'Inter', system-ui, sans-serif" font-size="13" font-weight="700" fill="#1b2433" text-anchor="start">Comparison</text><text x="658" y="470" font-family="'Inter', system-ui, sans-serif" font-size="11" font-weight="400" fill="#5c6675" text-anchor="start">Count-bound: diff or table</text><circle cx="844" cy="440" r="6" fill="#15803d"/><rect x="872" y="424" width="216" height="70" rx="8" fill="#f3f5f8" stroke="#d5dbe3" stroke-width="1"/><text x="886" y="450" font-family="'Inter', system-ui, sans-serif" font-size="13" font-weight="700" fill="#1b2433" text-anchor="start">Citations</text><text x="886" y="470" font-family="'Inter', system-ui, sans-serif" font-size="11" font-weight="400" fill="#5c6675" text-anchor="start">Every statement traceable</text><circle cx="1072" cy="440" r="6" fill="#15803d"/><rect x="1100" y="424" width="216" height="70" rx="8" fill="#f3f5f8" stroke="#d5dbe3" stroke-width="1"/><text x="1114" y="450" font-family="'Inter', system-ui, sans-serif" font-size="13" font-weight="700" fill="#1b2433" text-anchor="start">Response template</text><text x="1114" y="470" font-family="'Inter', system-ui, sans-serif" font-size="11" font-weight="400" fill="#5c6675" text-anchor="start">Finding · basis · action</text><circle cx="1300" cy="440" r="6" fill="#15803d"/><rect x="188" y="518" width="1128" height="266" rx="8" fill="#ffffff" stroke="#d5dbe3" stroke-width="1"/><text x="204" y="544" font-family="'IBM Plex Mono', ui-monospace, monospace" font-size="12" font-weight="500" fill="#5c6675" text-anchor="start" letter-spacing="1.2">FINDING · 3 SOURCES · SELECTION: 5 DOCUMENTS</text><text x="204" y="574" font-family="'Inter', system-ui, sans-serif" font-size="16" font-weight="700" fill="#1b2433" text-anchor="start">Two regional accounts lack the required approval step.</text><rect x="204" y="592" width="627.2" height="8" rx="4" fill="#dfe4ea"/><rect x="204" y="610" width="576" height="8" rx="4" fill="#dfe4ea"/><rect x="204" y="628" width="320" height="8" rx="4" fill="#dfe4ea"/><circle cx="548" cy="632" r="9" fill="#6d3fc4"/><text x="548" y="636" font-family="'IBM Plex Mono', ui-monospace, monospace" font-size="10" font-weight="700" fill="#ffffff" text-anchor="middle">1</text><circle cx="574" cy="632" r="9" fill="#6d3fc4"/><text x="574" y="636" font-family="'IBM Plex Mono', ui-monospace, monospace" font-size="10" font-weight="700" fill="#ffffff" text-anchor="middle">2</text><circle cx="600" cy="632" r="9" fill="#6d3fc4"/><text x="600" y="636" font-family="'IBM Plex Mono', ui-monospace, monospace" font-size="10" font-weight="700" fill="#ffffff" text-anchor="middle">3</text><rect x="888" y="538" width="408" height="96" rx="8" fill="#fbeedc" stroke="#b45309" stroke-width="1"/><text x="904" y="562" font-family="'IBM Plex Mono', ui-monospace, monospace" font-size="12" font-weight="500" fill="#b45309" text-anchor="start" letter-spacing="1.2">ACTION</text><text x="904" y="588" font-family="'Inter', system-ui, sans-serif" font-size="14" font-weight="600" fill="#1b2433" text-anchor="start">Route to the account owner for approval.</text><text x="904" y="610" font-family="'IBM Plex Mono', ui-monospace, monospace" font-size="12" font-weight="400" fill="#5c6675" text-anchor="start">Basis: citations 1 and 3 · governed selection</text><text x="204" y="764" font-family="'IBM Plex Mono', ui-monospace, monospace" font-size="12" font-weight="400" fill="#5c6675" text-anchor="start">A standalone dashboard would have rebuilt governed selection and traceable answers, and their failure modes.</text>
</svg>
