<?xml version="1.0" encoding="UTF-8"?>
<svg viewBox="0 0 1440 900" width="1440" height="900" xmlns="http://www.w3.org/2000/svg" role="img" aria-labelledby="da-cover-title da-cover-desc">
  <title id="da-cover-title">A verifiable document AI platform</title>
  <desc id="da-cover-desc">A document workspace: an answer with numbered citations, the active document set shown as editable tiles, and two versions of a policy compared side by side with the cited passages highlighted and linked to the citation numbers.</desc>
  <defs>
    <filter id="da-cover-shadow" x="-10%" y="-10%" width="120%" height="130%"><feDropShadow dx="0" dy="18" stdDeviation="18" flood-color="#000" flood-opacity="0.45"/></filter>
    <pattern id="da-cover-grid" width="48" height="48" patternUnits="userSpaceOnUse"><path d="M48 0H0V48" fill="none" stroke="rgba(237,221,212,0.06)" stroke-width="1"/></pattern>
    <marker id="da-cover-arrow" markerWidth="10" markerHeight="8" refX="9" refY="4" orient="auto"><path d="M0 0L10 4L0 8Z" fill="#6b7f99"/></marker>
    <marker id="da-cover-arrow-m" markerWidth="10" markerHeight="8" refX="9" refY="4" orient="auto"><path d="M0 0L10 4L0 8Z" fill="#6d3fc4"/></marker>
    <marker id="da-cover-arrow-r" markerWidth="10" markerHeight="8" refX="9" refY="4" orient="auto"><path d="M0 0L10 4L0 8Z" fill="#dbc9c9"/></marker>
  </defs>
  <rect width="1440" height="900" fill="#1d2d2b"/>
  <rect width="1440" height="900" fill="url(#da-cover-grid)"/>
<rect x="96" y="96" width="1248" height="640" rx="12" fill="#ffffff" stroke="#d5dbe3" stroke-width="1" filter="url(#da-cover-shadow)"/><rect x="96" y="96" width="1248" height="52" rx="0" fill="#e9edf2"/><path d="M96 148H1344" stroke="#d5dbe3"/><path d="M120 122l8-8 8 8-8 8z" fill="#6d3fc4"/><text x="144" y="127" font-family="'Archivo', 'Inter', system-ui, sans-serif" font-size="14" font-weight="700" fill="#1b2433" text-anchor="start" letter-spacing="0.3">Document workspace</text><text x="341.344" y="127" font-family="'Inter', system-ui, sans-serif" font-size="13" font-weight="400" fill="#5c6675" text-anchor="start">/  Policy set · 12 documents</text><text x="563.184" y="127" font-family="'Inter', system-ui, sans-serif" font-size="13" font-weight="400" fill="#5c6675" text-anchor="start">/  Compare</text><circle cx="1314" cy="122" r="12" fill="#dbe2ea"/><circle cx="1314" cy="118" r="4.5" fill="#46596f"/><path d="M1305 130a9 6 0 0 1 18 0z" fill="#46596f"/><text x="128" y="184" font-family="'IBM Plex Mono', ui-monospace, monospace" font-size="12" font-weight="500" fill="#5c6675" text-anchor="start" letter-spacing="1.2">QUESTION</text><text x="128" y="208" font-family="'Inter', system-ui, sans-serif" font-size="15" font-weight="600" fill="#1b2433" text-anchor="start">Which access controls apply to a shared regional account?</text><text x="128" y="252" font-family="'IBM Plex Mono', ui-monospace, monospace" font-size="12" font-weight="500" fill="#6d3fc4" text-anchor="start" letter-spacing="1.2">ANSWER · 3 SOURCES</text><rect x="128" y="274" width="397.2" height="9" rx="4" fill="#dbe2ea"/><circle cx="545.2" cy="278" r="11" fill="#6d3fc4"/><text x="545.2" y="282" font-family="'IBM Plex Mono', ui-monospace, monospace" font-size="11" font-weight="700" fill="#ffffff" text-anchor="middle">1</text><rect x="128" y="296" width="396" height="9" rx="4" fill="#dbe2ea"/><rect x="128" y="318" width="388.4" height="9" rx="4" fill="#dbe2ea"/><circle cx="536.4" cy="322" r="11" fill="#6d3fc4"/><text x="536.4" y="326" font-family="'IBM Plex Mono', ui-monospace, monospace" font-size="11" font-weight="700" fill="#ffffff" text-anchor="middle">2</text><rect x="128" y="340" width="369.59999999999997" height="9" rx="4" fill="#dbe2ea"/><rect x="128" y="362" width="274" height="9" rx="4" fill="#dbe2ea"/><circle cx="422" cy="366" r="11" fill="#6d3fc4"/><text x="422" y="370" font-family="'IBM Plex Mono', ui-monospace, monospace" font-size="11" font-weight="700" fill="#ffffff" text-anchor="middle">3</text><rect x="128" y="384" width="264" height="9" rx="4" fill="#dbe2ea"/><rect x="128" y="426" width="440" height="150" rx="8" fill="#f3f5f8" stroke="#d5dbe3" stroke-width="1"/><text x="144" y="450" font-family="'IBM Plex Mono', ui-monospace, monospace" font-size="12" font-weight="500" fill="#5c6675" text-anchor="start" letter-spacing="1.2">ACTIVE DOCUMENT SET · EDITABLE</text><rect x="144" y="466" width="52" height="38" rx="4" fill="#ffffff" stroke="#d5dbe3" stroke-width="1"/><rect x="152" y="476" width="30" height="4" rx="4" fill="#d5dbe3"/><rect x="152" y="485" width="22" height="4" rx="4" fill="#d5dbe3"/><rect x="212" y="466" width="52" height="38" rx="4" fill="#e8e0f8" stroke="#6d3fc4" stroke-width="1"/><rect x="220" y="476" width="30" height="4" rx="4" fill="#a98ee0"/><rect x="220" y="485" width="22" height="4" rx="4" fill="#a98ee0"/><circle cx="256" cy="474" r="6" fill="#6d3fc4"/><rect x="280" y="466" width="52" height="38" rx="4" fill="#ffffff" stroke="#d5dbe3" stroke-width="1"/><rect x="288" y="476" width="30" height="4" rx="4" fill="#d5dbe3"/><rect x="288" y="485" width="22" height="4" rx="4" fill="#d5dbe3"/><rect x="348" y="466" width="52" height="38" rx="4" fill="#ffffff" stroke="#d5dbe3" stroke-width="1"/><rect x="356" y="476" width="30" height="4" rx="4" fill="#d5dbe3"/><rect x="356" y="485" width="22" height="4" rx="4" fill="#d5dbe3"/><rect x="416" y="466" width="52" height="38" rx="4" fill="#e8e0f8" stroke="#6d3fc4" stroke-width="1"/><rect x="424" y="476" width="30" height="4" rx="4" fill="#a98ee0"/><rect x="424" y="485" width="22" height="4" rx="4" fill="#a98ee0"/><circle cx="460" cy="474" r="6" fill="#6d3fc4"/><rect x="484" y="466" width="52" height="38" rx="4" fill="#ffffff" stroke="#d5dbe3" stroke-width="1"/><rect x="492" y="476" width="30" height="4" rx="4" fill="#d5dbe3"/><rect x="492" y="485" width="22" height="4" rx="4" fill="#d5dbe3"/><rect x="144" y="516" width="52" height="38" rx="4" fill="#ffffff" stroke="#d5dbe3" stroke-width="1"/><rect x="152" y="526" width="30" height="4" rx="4" fill="#d5dbe3"/><rect x="152" y="535" width="22" height="4" rx="4" fill="#d5dbe3"/><rect x="212" y="516" width="52" height="38" rx="4" fill="#e8e0f8" stroke="#6d3fc4" stroke-width="1"/><rect x="220" y="526" width="30" height="4" rx="4" fill="#a98ee0"/><rect x="220" y="535" width="22" height="4" rx="4" fill="#a98ee0"/><circle cx="256" cy="524" r="6" fill="#6d3fc4"/><rect x="280" y="516" width="52" height="38" rx="4" fill="#ffffff" stroke="#d5dbe3" stroke-width="1"/><rect x="288" y="526" width="30" height="4" rx="4" fill="#d5dbe3"/><rect x="288" y="535" width="22" height="4" rx="4" fill="#d5dbe3"/><rect x="348" y="516" width="52" height="38" rx="4" fill="#ffffff" stroke="#d5dbe3" stroke-width="1"/><rect x="356" y="526" width="30" height="4" rx="4" fill="#d5dbe3"/><rect x="356" y="535" width="22" height="4" rx="4" fill="#d5dbe3"/><rect x="416" y="516" width="52" height="38" rx="4" fill="#ffffff" stroke="#d5dbe3" stroke-width="1"/><rect x="424" y="526" width="30" height="4" rx="4" fill="#d5dbe3"/><rect x="424" y="535" width="22" height="4" rx="4" fill="#d5dbe3"/><rect x="484" y="516" width="52" height="38" rx="4" fill="#ffffff" stroke="#d5dbe3" stroke-width="1"/><rect x="492" y="526" width="30" height="4" rx="4" fill="#d5dbe3"/><rect x="492" y="535" width="22" height="4" rx="4" fill="#d5dbe3"/><text x="128" y="608" font-family="'Inter', system-ui, sans-serif" font-size="13" font-weight="600" fill="#1b2433" text-anchor="start">Every answer carries its sources.</text><text x="128" y="626" font-family="'Inter', system-ui, sans-serif" font-size="13" font-weight="400" fill="#5c6675" text-anchor="start">Remove a document and the answer re-derives.</text><rect x="128" y="644" width="228.16000000000003" height="38" rx="5" fill="#6d3fc4" stroke="#6d3fc4" stroke-width="1.5"/><text x="242.08" y="668.04" font-family="'Inter', system-ui, sans-serif" font-size="14" font-weight="600" fill="#ffffff" text-anchor="middle">Save as compliance check</text><text x="616" y="184" font-family="'IBM Plex Mono', ui-monospace, monospace" font-size="12" font-weight="500" fill="#5c6675" text-anchor="start" letter-spacing="1.2">COMPARISON MODE</text><rect x="746" y="170" width="100.64000000000001" height="24" rx="12" fill="#1b2433" stroke="#1b2433" stroke-width="1"/><text x="796.32" y="186.32" font-family="'Inter', system-ui, sans-serif" font-size="12" font-weight="600" fill="#ffffff" text-anchor="middle">Side by side</text><rect x="854.64" y="170" width="67.04" height="24" rx="12" fill="#ffffff" stroke="#d5dbe3" stroke-width="1"/><text x="888.16" y="186.32" font-family="'Inter', system-ui, sans-serif" font-size="12" font-weight="600" fill="#1b2433" text-anchor="middle">Redline</text><rect x="929.68" y="170" width="67.04" height="24" rx="12" fill="#ffffff" stroke="#d5dbe3" stroke-width="1"/><text x="963.1999999999999" y="186.32" font-family="'Inter', system-ui, sans-serif" font-size="12" font-weight="600" fill="#1b2433" text-anchor="middle">Summary</text><rect x="616" y="212" width="336" height="500" rx="8" fill="#ffffff" stroke="#1b2433" stroke-width="1.2"/><text x="632" y="240" font-family="'Inter', system-ui, sans-serif" font-size="14" font-weight="700" fill="#1b2433" text-anchor="start">Access policy · v7</text><text x="936" y="240" font-family="'IBM Plex Mono', ui-monospace, monospace" font-size="11" font-weight="400" fill="#5c6675" text-anchor="end">Effective this year</text><path d="M616 256H952" stroke="#d5dbe3"/><rect x="632" y="278" width="304" height="8" rx="4" fill="#d5dbe3"/><rect x="632" y="302" width="279.68" height="8" rx="4" fill="#d5dbe3"/><rect x="632" y="326" width="294.88" height="8" rx="4" fill="#d5dbe3"/><rect x="626" y="343" width="316" height="20" rx="3" fill="#e8e0f8"/><rect x="632" y="350" width="261.44" height="8" rx="4" fill="#a98ee0"/><rect x="626" y="367" width="316" height="20" rx="3" fill="#e8e0f8"/><rect x="632" y="374" width="285.76" height="8" rx="4" fill="#a98ee0"/><rect x="632" y="398" width="167.20000000000002" height="8" rx="4" fill="#d5dbe3"/><rect x="632" y="422" width="304" height="8" rx="4" fill="#d5dbe3"/><rect x="632" y="446" width="279.68" height="8" rx="4" fill="#d5dbe3"/><rect x="632" y="470" width="294.88" height="8" rx="4" fill="#d5dbe3"/><rect x="626" y="487" width="316" height="20" rx="3" fill="#e8e0f8"/><rect x="632" y="494" width="261.44" height="8" rx="4" fill="#a98ee0"/><rect x="632" y="518" width="285.76" height="8" rx="4" fill="#d5dbe3"/><rect x="632" y="542" width="167.20000000000002" height="8" rx="4" fill="#d5dbe3"/><rect x="632" y="566" width="304" height="8" rx="4" fill="#d5dbe3"/><rect x="632" y="590" width="279.68" height="8" rx="4" fill="#d5dbe3"/><rect x="632" y="614" width="294.88" height="8" rx="4" fill="#d5dbe3"/><rect x="632" y="638" width="261.44" height="8" rx="4" fill="#d5dbe3"/><rect x="632" y="662" width="285.76" height="8" rx="4" fill="#d5dbe3"/><rect x="632" y="686" width="167.20000000000002" height="8" rx="4" fill="#d5dbe3"/><circle cx="938" cy="348" r="14" fill="#6d3fc4" stroke="#ffffff" stroke-width="2"/><text x="938" y="353" font-family="'IBM Plex Mono', ui-monospace, monospace" font-size="13" font-weight="700" fill="#ffffff" text-anchor="middle">1</text><circle cx="938" cy="492" r="14" fill="#6d3fc4" stroke="#ffffff" stroke-width="2"/><text x="938" y="497" font-family="'IBM Plex Mono', ui-monospace, monospace" font-size="13" font-weight="700" fill="#ffffff" text-anchor="middle">2</text><rect x="976" y="212" width="336" height="500" rx="8" fill="#ffffff" stroke="#1b2433" stroke-width="1.2"/><text x="992" y="240" font-family="'Inter', system-ui, sans-serif" font-size="14" font-weight="700" fill="#1b2433" text-anchor="start">Access policy · v6</text><text x="1296" y="240" font-family="'IBM Plex Mono', ui-monospace, monospace" font-size="11" font-weight="400" fill="#5c6675" text-anchor="end">Superseded</text><path d="M976 256H1312" stroke="#d5dbe3"/><rect x="992" y="278" width="304" height="8" rx="4" fill="#d5dbe3"/><rect x="992" y="302" width="279.68" height="8" rx="4" fill="#d5dbe3"/><rect x="992" y="326" width="294.88" height="8" rx="4" fill="#d5dbe3"/><rect x="986" y="343" width="316" height="20" rx="3" fill="#dbe2ea"/><rect x="992" y="350" width="261.44" height="8" rx="4" fill="#6b7f99"/><rect x="992" y="374" width="285.76" height="8" rx="4" fill="#d5dbe3"/><rect x="992" y="398" width="167.20000000000002" height="8" rx="4" fill="#d5dbe3"/><rect x="992" y="422" width="304" height="8" rx="4" fill="#d5dbe3"/><rect x="992" y="446" width="279.68" height="8" rx="4" fill="#d5dbe3"/><rect x="992" y="470" width="294.88" height="8" rx="4" fill="#d5dbe3"/><rect x="986" y="487" width="316" height="20" rx="3" fill="#dbe2ea"/><rect x="992" y="494" width="261.44" height="8" rx="4" fill="#6b7f99"/><rect x="986" y="511" width="316" height="20" rx="3" fill="#dbe2ea"/><rect x="992" y="518" width="285.76" height="8" rx="4" fill="#6b7f99"/><rect x="992" y="542" width="167.20000000000002" height="8" rx="4" fill="#d5dbe3"/><rect x="992" y="566" width="304" height="8" rx="4" fill="#d5dbe3"/><rect x="992" y="590" width="279.68" height="8" rx="4" fill="#d5dbe3"/><rect x="992" y="614" width="294.88" height="8" rx="4" fill="#d5dbe3"/><rect x="992" y="638" width="261.44" height="8" rx="4" fill="#d5dbe3"/><rect x="992" y="662" width="285.76" height="8" rx="4" fill="#d5dbe3"/><rect x="992" y="686" width="167.20000000000002" height="8" rx="4" fill="#d5dbe3"/><circle cx="1298" cy="492" r="14" fill="#6d3fc4" stroke="#ffffff" stroke-width="2"/><text x="1298" y="497" font-family="'IBM Plex Mono', ui-monospace, monospace" font-size="13" font-weight="700" fill="#ffffff" text-anchor="middle">3</text><path d="M545.2 278L610 348" fill="none" stroke="#dbc9c9" stroke-width="1.4" stroke-dasharray="5 5"/><circle cx="545.2" cy="278" r="4" fill="#dbc9c9"/><path d="M616 746V764" stroke="#dbc9c9" stroke-width="1.4"/><circle cx="616" cy="746" r="3.5" fill="#dbc9c9"/><text x="628" y="780" font-family="'IBM Plex Mono', ui-monospace, monospace" font-size="12" font-weight="600" fill="#dbc9c9" text-anchor="start" letter-spacing="1.4">CITATION 1 · TRACED TO THE PASSAGE IT CITES</text><path d="M96 830H1344" stroke="#b69494" stroke-width="1.5"/><circle cx="96" cy="830" r="5" fill="#1d2d2b" stroke="#dbc9c9" stroke-width="1.5"/><text x="96" y="856" font-family="'IBM Plex Mono', ui-monospace, monospace" font-size="12" font-weight="500" fill="#b69494" text-anchor="start" letter-spacing="1.4">QUESTION</text><circle cx="408" cy="830" r="5" fill="#1d2d2b" stroke="#dbc9c9" stroke-width="1.5"/><text x="408" y="856" font-family="'IBM Plex Mono', ui-monospace, monospace" font-size="12" font-weight="500" fill="#b69494" text-anchor="middle" letter-spacing="1.4">RETRIEVE</text><circle cx="720" cy="830" r="8" fill="#dbc9c9" stroke="#dbc9c9" stroke-width="1.5"/><text x="720" y="856" font-family="'IBM Plex Mono', ui-monospace, monospace" font-size="12" font-weight="700" fill="#dbc9c9" text-anchor="middle" letter-spacing="1.4">CITE</text><circle cx="1032" cy="830" r="5" fill="#1d2d2b" stroke="#dbc9c9" stroke-width="1.5"/><text x="1032" y="856" font-family="'IBM Plex Mono', ui-monospace, monospace" font-size="12" font-weight="500" fill="#b69494" text-anchor="middle" letter-spacing="1.4">COMPARE</text><circle cx="1344" cy="830" r="5" fill="#1d2d2b" stroke="#dbc9c9" stroke-width="1.5"/><text x="1344" y="856" font-family="'IBM Plex Mono', ui-monospace, monospace" font-size="12" font-weight="500" fill="#b69494" text-anchor="end" letter-spacing="1.4">REUSE AS A CHECK</text>
</svg>
